<mxfile host="app.diagrams.net" modified="2021-07-29T13:15:13.521Z" agent="5.0 (Windows NT 10.0; Win64; x64) AppleWebKit/537.36 (KHTML, like Gecko) Chrome/92.0.4515.107 Safari/537.36" etag="7KRG1hacSMOeZnqdlecv" version="14.8.4" type="github">
  <diagram id="kpx5KUNioDjyzZGF05Ip" name="Page-1">
    <mxGraphModel dx="782" dy="446" grid="1" gridSize="10" guides="1" tooltips="1" connect="1" arrows="1" fold="1" page="1" pageScale="1" pageWidth="827" pageHeight="1169" math="0" shadow="0">
      <root>
        <mxCell id="0" />
        <mxCell id="1" parent="0" />
        <mxCell id="l-F9UILul_ZIK0xFE01Y-2" value="Circuit breaker" style="rounded=0;whiteSpace=wrap;html=1;fillColor=#dae8fc;strokeColor=#6c8ebf;fontSize=18;fontStyle=1;verticalAlign=top;" vertex="1" parent="1">
          <mxGeometry x="210" y="170" width="190" height="170" as="geometry" />
        </mxCell>
        <mxCell id="l-F9UILul_ZIK0xFE01Y-4" value="MetricCollector" style="rounded=0;whiteSpace=wrap;html=1;fontSize=18;verticalAlign=top;fillColor=#dae8fc;strokeColor=#6c8ebf;fontStyle=1" vertex="1" parent="1">
          <mxGeometry x="229.38" y="280" width="151.25" height="40" as="geometry" />
        </mxCell>
        <mxCell id="l-F9UILul_ZIK0xFE01Y-5" value="Run()" style="rounded=0;whiteSpace=wrap;html=1;fontSize=16;verticalAlign=middle;fillColor=#d5e8d4;strokeColor=#82b366;fontStyle=1;" vertex="1" parent="1">
          <mxGeometry x="510" y="170" width="100" height="40" as="geometry" />
        </mxCell>
        <mxCell id="l-F9UILul_ZIK0xFE01Y-6" value="Fallback()" style="rounded=0;whiteSpace=wrap;html=1;fontSize=16;verticalAlign=middle;fillColor=#d5e8d4;strokeColor=#82b366;fontStyle=1;" vertex="1" parent="1">
          <mxGeometry x="510" y="260" width="100" height="40" as="geometry" />
        </mxCell>
        <mxCell id="l-F9UILul_ZIK0xFE01Y-11" value="AllowRequest()" style="rhombus;whiteSpace=wrap;html=1;fontSize=16;verticalAlign=middle;fillColor=#d5e8d4;strokeColor=#82b366;fontStyle=1" vertex="1" parent="1">
          <mxGeometry x="219.38" y="210" width="170" height="50" as="geometry" />
        </mxCell>
        <mxCell id="l-F9UILul_ZIK0xFE01Y-13" value="" style="edgeStyle=elbowEdgeStyle;elbow=horizontal;endArrow=classic;html=1;fontSize=12;fontColor=#FFFFFF;entryX=0;entryY=0.5;entryDx=0;entryDy=0;exitX=1;exitY=0.5;exitDx=0;exitDy=0;" edge="1" parent="1" source="l-F9UILul_ZIK0xFE01Y-11" target="l-F9UILul_ZIK0xFE01Y-5">
          <mxGeometry width="50" height="50" relative="1" as="geometry">
            <mxPoint x="389.38" y="230" as="sourcePoint" />
            <mxPoint x="439.38" y="180" as="targetPoint" />
            <Array as="points">
              <mxPoint x="440" y="210" />
            </Array>
          </mxGeometry>
        </mxCell>
        <mxCell id="l-F9UILul_ZIK0xFE01Y-14" value="" style="edgeStyle=elbowEdgeStyle;elbow=horizontal;endArrow=classic;html=1;fontSize=12;fontColor=#FFFFFF;entryX=0;entryY=0.5;entryDx=0;entryDy=0;exitX=1;exitY=0.5;exitDx=0;exitDy=0;" edge="1" parent="1" source="l-F9UILul_ZIK0xFE01Y-11" target="l-F9UILul_ZIK0xFE01Y-6">
          <mxGeometry width="50" height="50" relative="1" as="geometry">
            <mxPoint x="389.3800000000001" y="250" as="sourcePoint" />
            <mxPoint x="470" y="210" as="targetPoint" />
            <Array as="points">
              <mxPoint x="440" y="260" />
              <mxPoint x="440" y="260" />
              <mxPoint x="420" y="230" />
              <mxPoint x="430" y="260" />
            </Array>
          </mxGeometry>
        </mxCell>
        <mxCell id="l-F9UILul_ZIK0xFE01Y-16" value="status: close" style="text;html=1;strokeColor=none;fillColor=none;align=center;verticalAlign=middle;whiteSpace=wrap;rounded=0;fontSize=12;" vertex="1" parent="1">
          <mxGeometry x="430" y="170" width="80" height="20" as="geometry" />
        </mxCell>
        <mxCell id="l-F9UILul_ZIK0xFE01Y-18" value="status: open" style="text;html=1;strokeColor=none;fillColor=none;align=center;verticalAlign=middle;whiteSpace=wrap;rounded=0;fontSize=12;" vertex="1" parent="1">
          <mxGeometry x="430" y="280" width="80" height="20" as="geometry" />
        </mxCell>
        <mxCell id="l-F9UILul_ZIK0xFE01Y-21" value="" style="edgeStyle=elbowEdgeStyle;elbow=vertical;endArrow=classic;html=1;fontSize=12;fontColor=#000000;rounded=1;exitX=0.5;exitY=1;exitDx=0;exitDy=0;" edge="1" parent="1" source="l-F9UILul_ZIK0xFE01Y-27">
          <mxGeometry width="50" height="50" relative="1" as="geometry">
            <mxPoint x="690" y="240" as="sourcePoint" />
            <mxPoint x="381" y="310" as="targetPoint" />
            <Array as="points">
              <mxPoint x="570" y="310" />
              <mxPoint x="540" y="340" />
              <mxPoint x="530" y="340" />
            </Array>
          </mxGeometry>
        </mxCell>
        <mxCell id="l-F9UILul_ZIK0xFE01Y-23" value="" style="edgeStyle=elbowEdgeStyle;elbow=horizontal;endArrow=none;html=1;fontSize=12;fontColor=#000000;endFill=0;rounded=1;" edge="1" parent="1">
          <mxGeometry width="50" height="50" relative="1" as="geometry">
            <mxPoint x="610" y="190" as="sourcePoint" />
            <mxPoint x="690" y="240" as="targetPoint" />
            <Array as="points">
              <mxPoint x="640" y="220" />
            </Array>
          </mxGeometry>
        </mxCell>
        <mxCell id="l-F9UILul_ZIK0xFE01Y-24" value="" style="edgeStyle=elbowEdgeStyle;elbow=horizontal;endArrow=none;html=1;fontSize=12;fontColor=#000000;exitX=1;exitY=0.5;exitDx=0;exitDy=0;endFill=0;rounded=1;" edge="1" parent="1" source="l-F9UILul_ZIK0xFE01Y-6">
          <mxGeometry width="50" height="50" relative="1" as="geometry">
            <mxPoint x="620" y="280" as="sourcePoint" />
            <mxPoint x="680" y="240" as="targetPoint" />
            <Array as="points">
              <mxPoint x="640" y="260" />
            </Array>
          </mxGeometry>
        </mxCell>
        <mxCell id="l-F9UILul_ZIK0xFE01Y-25" value="Update metrics" style="text;html=1;strokeColor=none;fillColor=none;align=center;verticalAlign=middle;whiteSpace=wrap;rounded=0;fontSize=12;" vertex="1" parent="1">
          <mxGeometry x="440" y="320" width="220" height="20" as="geometry" />
        </mxCell>
        <mxCell id="l-F9UILul_ZIK0xFE01Y-27" value="ReportEvent()" style="rounded=0;whiteSpace=wrap;html=1;fontSize=16;verticalAlign=middle;fillColor=#d5e8d4;strokeColor=#82b366;fontStyle=1;" vertex="1" parent="1">
          <mxGeometry x="690" y="220" width="130" height="40" as="geometry" />
        </mxCell>
        <mxCell id="l-F9UILul_ZIK0xFE01Y-28" value="circuitSettings" style="rounded=0;whiteSpace=wrap;html=1;fillColor=#ffe6cc;strokeColor=#d79b00;fontSize=18;fontStyle=1;verticalAlign=middle;" vertex="1" parent="1">
          <mxGeometry x="209.38" y="390" width="190" height="60" as="geometry" />
        </mxCell>
        <mxCell id="l-F9UILul_ZIK0xFE01Y-30" value="" style="endArrow=classic;html=1;fontSize=16;fontColor=#000000;entryX=0.5;entryY=1;entryDx=0;entryDy=0;exitX=0.5;exitY=0;exitDx=0;exitDy=0;" edge="1" parent="1" source="l-F9UILul_ZIK0xFE01Y-28" target="l-F9UILul_ZIK0xFE01Y-2">
          <mxGeometry width="50" height="50" relative="1" as="geometry">
            <mxPoint x="310" y="370" as="sourcePoint" />
            <mxPoint x="310" y="350" as="targetPoint" />
          </mxGeometry>
        </mxCell>
        <mxCell id="l-F9UILul_ZIK0xFE01Y-34" style="edgeStyle=orthogonalEdgeStyle;rounded=1;orthogonalLoop=1;jettySize=auto;html=1;exitX=0.5;exitY=1;exitDx=0;exitDy=0;fontSize=16;fontColor=#000000;endArrow=none;endFill=0;" edge="1" parent="1" source="l-F9UILul_ZIK0xFE01Y-25" target="l-F9UILul_ZIK0xFE01Y-25">
          <mxGeometry relative="1" as="geometry" />
        </mxCell>
      </root>
    </mxGraphModel>
  </diagram>
</mxfile>
